<?xml version="1.0" standalone="no"?>
<!DOCTYPE svg PUBLIC "-//W3C//DTD SVG 20010904//EN"
 "http://www.w3.org/TR/2001/REC-SVG-20010904/DTD/svg10.dtd">
<svg version="1.0" xmlns="http://www.w3.org/2000/svg"
 width="31.000000pt" height="38.000000pt" viewBox="0 0 31.000000 38.000000"
 preserveAspectRatio="xMidYMid meet">

<g transform="translate(0.000000,38.000000) scale(0.100000,-0.100000)"
fill="#000000" stroke="none">
<path d="M90 235 l0 -115 64 0 c76 0 73 -6 68 138 l-3 92 -65 0 -64 0 0 -115z
m120 -1 l0 -95 -52 3 -53 3 -3 93 -3 92 56 0 55 0 0 -96z"/>
<path d="M58 214 c-5 -4 -8 -34 -8 -66 l0 -58 40 0 c32 0 40 -4 40 -19 0 -10
-10 -26 -22 -34 -22 -15 -20 -16 45 -16 38 -1 67 3 67 9 0 6 -8 10 -18 10 -24
0 -42 19 -35 36 3 9 21 14 49 14 l44 0 0 59 c0 33 -4 63 -10 66 -6 4 -10 -15
-10 -49 l0 -54 -72 -4 c-40 -2 -78 -2 -85 0 -7 2 -13 27 -15 59 -2 30 -6 51
-10 47z"/>
</g>
</svg>
