<?xml version="1.0" standalone="no"?>
<!DOCTYPE svg PUBLIC "-//W3C//DTD SVG 20010904//EN"
 "http://www.w3.org/TR/2001/REC-SVG-20010904/DTD/svg10.dtd">
<svg version="1.0" xmlns="http://www.w3.org/2000/svg"
 width="1000.000000pt" height="1000.000000pt" viewBox="0 0 1000.000000 1000.000000"
 preserveAspectRatio="xMidYMid meet">

<g transform="translate(0.000000,1000.000000) scale(0.100000,-0.100000)"
fill="#000000" stroke="none">
<path d="M3333 9356 c-103 -33 -194 -114 -241 -214 l-27 -57 0 -2775 0 -2775
32 -66 c39 -80 111 -150 191 -187 l57 -27 1535 0 1535 0 57 27 c80 37 152 107
191 187 l32 66 0 2775 0 2775 -32 66 c-39 80 -111 150 -191 187 l-57 27 -1520
2 c-1237 1 -1528 -1 -1562 -11z m2975 -545 c43 -22 73 -53 96 -98 15 -29 16
-242 16 -2438 0 -2345 0 -2407 -19 -2443 -22 -43 -53 -73 -98 -96 -29 -14
-161 -16 -1418 -16 -1257 0 -1389 2 -1418 16 -45 23 -76 53 -98 96 -19 36 -19
98 -19 2443 0 2345 0 2407 19 2443 24 46 56 76 101 96 31 13 205 15 1418 16
1340 0 1384 -1 1420 -19z"/>
<path d="M4699 7188 c-56 -63 -79 -98 -79 -117 0 -20 27 -11 37 12 12 26 104
137 114 137 4 0 13 -16 19 -36 16 -47 47 -59 102 -37 39 16 42 16 52 -1 43
-72 75 -82 154 -46 70 32 50 55 -21 25 -56 -23 -72 -19 -101 26 -24 35 -31 40
-54 35 -95 -20 -88 -21 -108 21 -29 58 -50 55 -115 -19z"/>
<path d="M4719 6892 c-47 -32 -142 -143 -131 -154 7 -7 32 13 77 61 69 73 84
81 104 57 6 -7 38 -16 72 -19 33 -3 68 -12 77 -20 29 -25 50 -27 128 -12 41 8
78 15 80 15 2 0 4 7 4 16 0 13 -6 15 -27 10 -86 -18 -148 -17 -188 3 -22 12
-58 21 -82 21 -23 0 -45 4 -48 10 -15 24 -41 29 -66 12z"/>
<path d="M3959 5118 c-56 -63 -79 -98 -79 -117 0 -20 27 -11 37 12 12 26 104
137 114 137 4 0 13 -16 19 -36 16 -47 47 -59 102 -37 39 16 42 16 52 -1 43
-72 75 -82 154 -46 70 32 50 55 -21 25 -56 -23 -72 -19 -101 26 -24 35 -31 40
-54 35 -95 -20 -88 -21 -108 21 -29 58 -50 55 -115 -19z"/>
<path d="M5379 5118 c-56 -63 -79 -98 -79 -117 0 -20 27 -11 37 12 12 26 104
137 114 137 4 0 13 -16 19 -36 16 -47 47 -59 102 -37 39 16 42 16 52 -1 43
-72 75 -82 154 -46 70 32 50 55 -21 25 -56 -23 -72 -19 -101 26 -24 35 -31 40
-54 35 -95 -20 -88 -21 -108 21 -29 58 -50 55 -115 -19z"/>
<path d="M3979 4822 c-47 -32 -142 -143 -131 -154 7 -7 32 13 77 61 69 73 84
81 104 57 6 -7 38 -16 72 -19 33 -3 68 -12 77 -20 29 -25 50 -27 128 -12 41 8
78 15 80 15 2 0 4 7 4 16 0 13 -6 15 -27 10 -86 -18 -148 -17 -188 3 -22 12
-58 21 -82 21 -23 0 -45 4 -48 10 -15 24 -41 29 -66 12z"/>
<path d="M5399 4822 c-47 -32 -142 -143 -131 -154 7 -7 32 13 77 61 69 73 84
81 104 57 6 -7 38 -16 72 -19 33 -3 68 -12 77 -20 29 -25 50 -27 128 -12 41 8
78 15 80 15 2 0 4 7 4 16 0 13 -6 15 -27 10 -86 -18 -148 -17 -188 3 -22 12
-58 21 -82 21 -23 0 -45 4 -48 10 -15 24 -41 29 -66 12z"/>
<path d="M2439 5987 c-24 -13 -57 -43 -74 -66 l-30 -43 -3 -1602 -2 -1603 23
-44 c13 -24 43 -57 66 -74 l43 -30 1099 -3 1099 -2 0 -755 0 -755 -663 0 -664
0 -44 -23 c-24 -13 -57 -43 -74 -66 -28 -39 -30 -50 -30 -126 0 -76 2 -87 30
-126 17 -23 50 -53 74 -66 l44 -23 1607 0 1607 0 44 23 c24 13 58 43 74 66 28
39 30 50 30 126 0 76 -2 87 -30 126 -16 23 -50 53 -74 66 l-44 23 -719 0 -718
0 0 755 0 755 1084 2 1084 3 43 30 c23 17 53 50 66 74 l23 44 0 1592 0 1592
-23 44 c-13 24 -43 58 -66 74 -42 29 -45 30 -187 33 l-144 3 0 -1468 c0 -1044
-3 -1480 -11 -1508 -15 -52 -82 -119 -134 -134 -57 -16 -3913 -16 -3970 0 -52
15 -119 82 -134 134 -8 28 -11 463 -11 1508 l0 1467 -123 0 c-110 0 -129 -3
-168 -23z"/>
</g>
</svg>
